<?xml version="1.0" standalone="no"?>
<!DOCTYPE svg PUBLIC "-//W3C//DTD SVG 20010904//EN"
 "http://www.w3.org/TR/2001/REC-SVG-20010904/DTD/svg10.dtd">
<svg version="1.0" xmlns="http://www.w3.org/2000/svg"
 width="140.000000pt" height="50.000000pt" viewBox="0 0 140.000000 50.000000"
 preserveAspectRatio="xMidYMid meet">
<metadata>
Created by potrace 1.16, written by Peter Selinger 2001-2019
</metadata>
<g transform="translate(0.000000,50.000000) scale(0.058091,-0.016667)"
fill="#000000" stroke="none">
<path d="M1115 2967 c-42 -42 -53 -94 -32 -147 l15 -39 -37 -3 -36 -3 -3 -57
c-3 -49 0 -57 17 -63 14 -4 20 -17 23 -50 4 -59 -19 -60 -64 -3 -75 94 -104
118 -142 118 -87 0 -607 -155 -740 -220 -122 -60 -150 -112 -79 -145 32 -16
53 -17 158 -10 174 11 173 11 210 -30 l33 -35 341 0 341 0 0 -164 0 -163 -39
-6 c-22 -3 -72 -1 -111 3 -79 9 -111 29 -129 82 -11 30 -10 30 17 23 15 -3 59
-9 97 -12 62 -4 74 -2 105 19 45 30 50 65 15 106 -51 61 -182 104 -267 88 -77
-14 -168 -132 -168 -219 0 -21 6 -52 14 -70 19 -46 90 -104 152 -124 l53 -16
-25 -36 c-44 -65 -23 -185 40 -226 l24 -16 -25 -27 c-78 -82 -65 -193 29 -258
31 -22 35 -29 24 -38 -45 -37 -58 -95 -31 -145 16 -32 65 -77 94 -86 16 -5 14
-10 -20 -44 -53 -53 -54 -99 -3 -147 19 -19 42 -34 50 -34 10 0 5 -13 -16 -42
-43 -59 -41 -100 8 -148 37 -38 38 -39 21 -62 -35 -48 -34 -75 2 -111 19 -19
40 -36 48 -38 11 -4 11 -9 2 -26 -19 -36 -13 -77 14 -103 24 -22 25 -29 25
-132 l0 -108 85 0 85 0 0 127 c0 104 3 130 17 145 13 14 15 25 7 46 -8 24 -5
31 33 68 25 24 43 50 43 63 0 30 -26 77 -46 85 -15 6 -13 10 14 29 57 40 68
101 29 159 l-24 34 29 13 c40 18 61 54 61 103 0 35 -6 47 -40 78 l-39 37 32
12 c18 7 46 28 63 47 41 46 43 108 5 153 l-25 30 33 14 c44 18 85 68 94 112
10 57 -4 103 -47 150 l-39 43 24 6 c41 10 103 76 115 124 14 50 3 103 -29 137
l-21 22 47 18 c53 20 109 66 130 106 18 36 18 110 0 154 -21 49 -92 122 -133
136 -50 16 -131 6 -203 -27 -70 -31 -110 -73 -110 -114 0 -55 94 -83 204 -60
32 6 60 9 64 6 13 -14 -15 -61 -47 -80 -26 -15 -58 -20 -137 -24 l-104 -5 0
167 0 166 341 0 341 0 30 31 c42 41 63 47 133 38 95 -12 217 -10 245 4 28 14
37 46 20 76 -14 27 -185 110 -320 155 -58 20 -199 60 -314 90 -247 65 -247 65
-321 -36 -50 -67 -61 -78 -85 -78 -25 0 -14 87 11 95 17 6 20 14 17 63 l-3 57
-37 3 c-36 3 -36 3 -22 30 29 56 11 129 -42 171 -20 16 -41 21 -81 21 -49 0
-59 -4 -88 -33z m158 -24 c27 -25 22 -78 -9 -102 -36 -28 -68 -26 -93 5 -60
76 30 161 102 97z m-15 -685 l-3 -313 -30 0 -30 0 -3 313 -2 312 35 0 35 0 -2
-312z m487 239 c111 -74 225 -159 225 -167 0 -5 -13 -11 -29 -15 -27 -6 -43 5
-175 121 -80 70 -146 128 -146 131 0 7 63 -29 125 -70z m-1002 25 c-225 -201
-242 -214 -273 -207 -16 4 -30 10 -30 14 0 14 316 231 335 231 6 -1 -9 -18
-32 -38z m202 -318 c30 -13 30 -13 3 -8 -35 8 -36 -8 -3 -30 32 -21 69 -22 61
-1 -4 13 -1 12 20 -1 14 -9 29 -25 34 -34 20 -37 -56 -66 -135 -52 -36 7 -40
10 -37 35 4 37 -19 35 -65 -6 -35 -33 -35 -34 -24 -70 16 -47 56 -95 90 -109
14 -6 120 -14 236 -18 281 -10 378 -37 450 -122 23 -27 26 -39 22 -78 -4 -38
-12 -52 -54 -89 l-48 -44 -5 44 c-3 24 -11 53 -17 65 -20 36 -94 95 -152 122
-51 24 -72 27 -226 33 -227 10 -329 38 -389 109 -47 56 -30 166 36 227 55 52
127 61 203 27z m654 16 c70 -20 131 -105 131 -182 0 -64 -28 -108 -90 -140
-65 -34 -93 -35 -162 -3 l-53 25 35 0 c79 1 160 66 160 129 0 27 -60 91 -85
91 -13 0 -16 -6 -13 -25 7 -33 0 -36 -72 -37 -40 -1 -68 5 -85 16 -23 15 -24
19 -11 37 8 12 24 27 35 35 18 13 20 13 15 -1 -8 -20 34 -20 64 1 31 21 28 38
-5 29 -16 -4 -25 -3 -21 1 7 7 92 32 113 33 6 1 26 -3 44 -9z m-653 -517 c31
-40 79 -56 274 -89 170 -28 189 -36 264 -113 45 -45 50 -55 54 -105 4 -53 3
-57 -31 -91 -22 -22 -45 -35 -61 -35 -24 0 -26 3 -26 43 -1 91 -66 171 -163
200 -29 9 -102 20 -163 26 -179 15 -249 61 -249 163 0 38 5 52 30 78 l30 31 9
-38 c5 -21 19 -52 32 -70z m19 -310 c47 -55 106 -80 231 -98 75 -11 120 -23
155 -42 57 -30 119 -94 119 -121 -1 -27 -24 -62 -56 -83 -38 -25 -45 -24 -34
6 15 41 1 82 -44 123 -49 45 -120 66 -271 82 -106 11 -140 24 -179 70 -39 47
-34 110 13 164 15 17 16 16 24 -22 4 -22 23 -57 42 -79z m78 -294 c22 -16 65
-36 96 -45 31 -9 75 -23 98 -31 51 -17 169 -105 178 -132 10 -32 -6 -71 -36
-86 -38 -20 -37 -21 -35 25 2 76 -95 145 -248 176 -95 19 -122 31 -151 66 -32
37 -33 86 -3 117 l21 24 20 -43 c11 -23 38 -55 60 -71z m-13 -235 c20 -23 63
-43 172 -80 54 -18 111 -42 127 -53 51 -37 58 -94 15 -133 -18 -16 -19 -15
-20 17 -1 71 -65 123 -188 155 -92 23 -156 56 -167 86 -5 15 -1 32 14 55 l21
34 7 -32 c3 -18 12 -40 19 -49z m162 -289 c167 -87 183 -106 132 -162 -24 -27
-25 -27 -19 -5 10 35 -13 79 -48 95 -18 8 -68 27 -112 42 -118 42 -153 85
-123 150 l12 26 20 -43 c19 -39 32 -48 138 -103z"/>
</g>
</svg>
